<svg width="39" height="43" viewBox="0 0 39 43" fill="none" xmlns="http://www.w3.org/2000/svg">
<path d="M28.1073 14.1034C29.0939 14.6399 30.5359 15.2531 31.5984 15.8663C33.1163 16.7861 33.7234 17.7059 34.4823 18.9323C35.2413 20.1586 36.0002 20.6952 36.0002 22.8414C36.0002 24.8342 34.9377 26.5971 34.2547 28.2068C33.5716 29.8164 33.8752 30.6595 32.7368 31.3494C31.5984 32.0392 30.1564 31.426 29.8528 31.3494C29.5493 31.2727 30.2323 28.8966 30.6118 27.5169C30.9912 26.1373 30.9153 24.1444 30.46 22.7647C30.0046 21.385 29.9287 19.852 29.4734 18.8556C29.018 17.8592 27.8037 15.3298 27.1207 14.7166C26.4376 14.1034 27.1207 13.5668 28.1073 14.1034ZM22.1117 13.2603C22.8706 13.5668 24.8438 15.7897 25.8305 17.246C26.8171 18.7023 27.0448 19.0856 27.2724 20.3119C27.5001 21.5383 27.7278 22.3815 27.7278 23.9144C27.7278 25.4474 27.7278 27.8235 27.3483 28.59C26.9689 29.3565 26.2099 30.0463 25.2233 30.1996C24.2367 30.3529 23.9331 29.8164 23.0983 29.8164C22.2635 29.8164 21.8081 29.9697 21.884 28.2068C21.9599 26.4438 21.6563 22.3048 21.6563 21.3084C21.6563 20.3119 21.6563 21.0018 21.6563 20.3119C21.6563 19.6221 21.8081 18.6257 21.8081 17.0927C21.8081 15.5597 21.3527 12.9537 22.1117 13.2603ZM19.6072 43C20.1384 43 20.8215 42.9234 21.6563 42.9234C22.4911 42.9234 23.1742 42.8467 24.9956 42.6934C26.8171 42.5401 27.2724 42.2335 28.8662 41.8503C30.46 41.467 32.0537 41.2371 33.268 40.7005C34.4823 40.164 34.71 40.4706 34.7859 39.1676C34.8618 37.8645 34.8618 36.4849 34.8618 34.5686C34.8618 32.6524 36.0761 30.123 36.8351 29.2799C37.594 28.4367 38.8083 26.4438 38.9601 24.3743C39.1119 22.3048 38.8083 18.7023 38.4288 17.5526C38.0494 16.4029 37.0627 14.7932 36.2279 14.6399C35.3931 14.4866 34.6341 12.6471 33.4198 12.1105C32.2055 11.574 30.5359 11.0374 30.1564 10.8841C28.4108 10.2709 26.7412 10.5009 25.1474 9.5811C24.3885 9.12121 23.7054 9.19786 23.1742 8.66132C22.6429 8.12478 23.0983 7.12835 22.6429 6.8984C22.1876 6.66845 20.8974 6.82175 20.6697 6.43851C20.5179 6.20856 20.5179 5.51872 20.7456 5.13547C20.8974 4.98217 21.125 4.90553 21.3527 4.90553C22.0358 4.82888 22.7947 5.05883 22.7947 4.21569C22.7947 3.37255 22.8706 2.68271 22.1876 2.68271C21.5804 2.68271 21.0492 2.68271 20.8215 2.45276C20.6697 2.29947 20.6697 1.99287 20.6697 1.76292C20.5938 1.30303 20.6697 0.996435 20.7456 0.689839C20.8215 0.229948 20.2902 0 19.6072 0C18.9241 0 18.4688 0.306596 18.4688 0.689839C18.4688 0.996435 18.4688 1.37968 18.5447 1.76292C18.5447 2.06952 18.6206 2.45276 18.3929 2.60606C18.0893 2.75936 17.4821 2.68271 17.0268 2.68271C16.3437 2.68271 16.4196 3.37255 16.4196 4.21569C16.4196 5.05883 17.1786 4.82888 17.8616 4.90553C18.0893 4.90553 18.3929 5.05883 18.5447 5.21212C18.7723 5.59537 18.6964 6.20856 18.5447 6.43851C18.317 6.82175 17.0268 6.66845 16.5714 6.8984C16.1161 7.12835 16.5714 8.12478 16.0402 8.66132C15.5089 9.19786 14.8259 9.12121 14.0669 9.5811C12.4732 10.5009 10.8035 10.2709 9.05794 10.8841C8.67847 11.0374 7.00881 11.574 5.79451 12.1105C4.5802 12.6471 3.97305 13.7201 2.98644 14.6399C2.37929 15.2531 1.16499 16.4029 0.785516 17.5526C0.406047 18.7023 -0.125209 21.385 0.0265786 23.4545C0.102472 24.451 0.25426 26.2139 0.937304 26.8271C1.77214 27.5936 1.99982 28.82 2.37929 29.2799C3.13822 30.123 4.35252 32.6524 4.35252 34.5686C4.35252 36.4849 4.35252 37.8645 4.42842 39.1676C4.50431 40.4706 4.73199 40.164 5.94629 40.7005C7.16059 41.2371 8.75436 41.467 10.3481 41.8503C11.9419 42.2335 12.3973 42.5401 14.2187 42.6934C16.0402 42.8467 16.7232 42.9234 17.558 42.9234C18.3929 42.9234 19.0759 43 19.6072 43ZM11.1071 14.1034C12.0937 13.5668 12.7767 14.1034 12.0937 14.7166C11.4106 15.3298 10.1963 17.8592 9.74098 18.8556C9.28562 19.852 9.20972 21.385 8.75436 22.7647C8.299 24.1444 8.22311 26.1373 8.60257 27.5169C8.98204 28.8966 9.66509 31.2727 9.36151 31.3494C9.05794 31.426 7.61596 32.0392 6.47755 31.3494C5.33914 30.6595 5.64272 29.8164 4.95967 28.2068C4.27663 26.5971 3.21412 24.8342 3.21412 22.8414C3.21412 20.6952 3.97305 20.1586 4.73199 18.9323C5.49093 17.7059 6.09808 16.7861 7.61596 15.8663C8.67847 15.2531 10.1205 14.6399 11.1071 14.1034ZM17.1027 13.2603C17.8616 12.9537 17.4063 15.5597 17.4063 17.0927C17.4063 18.6257 17.558 19.6221 17.558 20.3119C17.558 21.0018 17.558 20.3119 17.558 21.3084C17.558 22.3048 17.2545 26.4438 17.3304 28.2068C17.4063 29.9697 16.9509 29.8164 16.1161 29.8164C15.2812 29.8164 14.9777 30.3529 13.991 30.1996C13.0044 30.0463 12.2455 29.3565 11.866 28.59C11.4865 27.8235 11.4865 25.4474 11.4865 23.9144C11.4865 22.3815 11.7142 21.5383 11.9419 20.3119C12.1696 19.0856 12.3973 18.7023 13.3839 17.246C14.3705 15.7897 16.3437 13.5668 17.1027 13.2603ZM19.759 36.6381C23.5536 36.6381 23.8572 36.5615 25.2233 36.7914C26.7412 36.9447 28.1832 37.2513 29.5493 37.4813C30.9153 37.7112 32.1296 38.0945 32.1296 38.7077C32.1296 39.3209 30.5359 39.1676 29.5493 39.5508C28.5626 39.934 27.0448 40.2406 26.0581 40.4706C25.0715 40.7005 23.7054 40.5472 22.8706 40.8538C22.0358 41.1604 20.1384 41.0071 19.6831 41.0071C19.2277 41.0071 17.4821 41.0838 16.3437 40.9305C15.433 40.7772 13.6875 40.6239 12.7008 40.3939C11.7142 40.164 10.1205 40.0107 9.13383 39.6275C8.14721 39.2442 7.0847 39.3209 7.0847 38.7077C7.0847 38.0945 8.299 37.7112 9.66509 37.4813C11.0312 37.2513 12.4732 36.9447 13.991 36.7914C15.3571 36.5615 15.9643 36.6381 19.759 36.6381ZM5.71861 33.9554C5.64272 33.4955 6.70523 33.1123 7.38827 33.1123C8.07132 33.1123 9.43741 32.6524 10.424 32.4225C11.4106 32.1925 12.9285 32.3458 14.1428 32.1925C15.3571 32.0392 16.4955 31.9626 16.7991 31.9626C17.1027 31.9626 16.7991 31.9626 18.0134 31.9626C19.2277 31.9626 20.5938 31.8093 21.884 31.7326C23.1742 31.656 24.7679 32.1159 25.6028 32.1925C26.4376 32.2692 29.4734 32.6524 30.2323 32.6524C30.9912 32.6524 32.6609 33.5722 32.6609 33.8021C32.6609 34.0321 32.6609 36.6381 32.3573 36.5615C32.0537 36.4848 30.0805 36.025 29.3216 35.7184C28.5626 35.4118 27.8796 35.6417 26.893 35.4118C25.9064 35.1818 24.2367 35.0285 23.7054 35.0285C23.1742 35.0285 21.6563 35.1052 21.3527 35.1052C21.0492 35.1052 19.8349 34.9519 19.3036 34.9519C18.7723 34.9519 17.7098 35.0285 15.5089 35.0285C13.308 35.0285 11.1071 35.4884 10.3481 35.5651C9.58919 35.6417 8.14721 35.7184 7.61596 36.1016C7.0847 36.4848 6.09808 36.5615 6.02219 36.1016C5.94629 35.6417 5.79451 34.4153 5.71861 33.9554Z" fill="#FFA78F"/>
</svg>
